<?xml version="1.0" encoding="utf-8" ?>
<svg baseProfile="full" height="1024" version="1.1" viewBox="0 0 1024 1024" width="1024" xmlns="http://www.w3.org/2000/svg" xmlns:ev="http://www.w3.org/2001/xml-events" xmlns:xlink="http://www.w3.org/1999/xlink"><defs /><rect fill="black" height="1024" width="1024" x="0" y="0" /><path d="M 786 145 L 785 146 L 784 146 L 782 148 L 782 149 L 781 150 L 735 150 L 734 151 L 733 151 L 732 152 L 731 152 L 730 153 L 729 153 L 728 152 L 726 152 L 725 151 L 720 151 L 719 150 L 671 150 L 670 151 L 666 151 L 665 152 L 663 152 L 662 153 L 660 153 L 659 154 L 658 154 L 657 155 L 656 155 L 655 156 L 654 156 L 652 158 L 651 158 L 642 167 L 642 168 L 640 170 L 640 171 L 639 172 L 639 173 L 638 174 L 638 175 L 637 176 L 637 177 L 636 178 L 636 180 L 635 181 L 635 184 L 634 185 L 634 192 L 633 193 L 633 319 L 634 320 L 634 325 L 635 326 L 635 329 L 636 330 L 636 332 L 637 333 L 637 334 L 638 335 L 638 336 L 639 337 L 639 338 L 641 340 L 641 341 L 643 343 L 643 344 L 649 350 L 650 350 L 652 352 L 653 352 L 655 354 L 656 354 L 657 355 L 659 355 L 660 356 L 661 356 L 662 357 L 664 357 L 665 358 L 669 358 L 670 359 L 722 359 L 723 358 L 726 358 L 727 357 L 731 357 L 732 358 L 733 358 L 734 359 L 798 359 L 799 358 L 801 358 L 803 356 L 806 356 L 807 357 L 810 357 L 811 358 L 814 358 L 815 359 L 863 359 L 864 358 L 866 358 L 867 359 L 867 402 L 868 403 L 868 405 L 871 408 L 874 408 L 875 409 L 949 409 L 950 408 L 955 408 L 956 407 L 959 407 L 960 406 L 962 406 L 963 405 L 964 405 L 965 404 L 966 404 L 967 403 L 968 403 L 969 402 L 970 402 L 973 399 L 974 399 L 978 395 L 978 394 L 980 392 L 980 391 L 982 389 L 982 388 L 983 387 L 983 386 L 984 385 L 984 384 L 985 383 L 985 381 L 986 380 L 986 378 L 987 377 L 987 373 L 988 372 L 988 157 L 987 156 L 987 155 L 986 154 L 986 153 L 985 152 L 984 152 L 983 151 L 982 151 L 981 150 L 874 150 L 873 151 L 872 151 L 871 152 L 870 152 L 869 153 L 869 154 L 868 155 L 868 160 L 867 161 L 857 161 L 856 160 L 856 154 L 855 153 L 855 150 L 853 148 L 853 147 L 852 146 L 851 146 L 850 145 Z" fill="#f2f2f2" stroke="none" /><path d="M 137 110 L 135 112 L 134 112 L 134 113 L 132 115 L 132 149 L 131 150 L 41 150 L 40 151 L 39 151 L 36 154 L 36 156 L 35 157 L 35 402 L 36 403 L 36 404 L 37 405 L 37 406 L 38 407 L 39 407 L 40 408 L 42 408 L 43 409 L 154 409 L 155 408 L 157 408 L 158 407 L 159 407 L 160 406 L 160 405 L 161 404 L 161 361 L 163 359 L 219 359 L 220 358 L 224 358 L 225 357 L 227 357 L 228 356 L 229 356 L 230 355 L 232 355 L 234 353 L 235 353 L 236 352 L 237 352 L 239 350 L 241 350 L 242 351 L 243 351 L 245 353 L 246 353 L 247 354 L 248 354 L 249 355 L 250 355 L 251 356 L 253 356 L 254 357 L 256 357 L 257 358 L 260 358 L 261 359 L 311 359 L 312 358 L 316 358 L 317 357 L 321 357 L 322 358 L 323 358 L 324 359 L 368 359 L 371 362 L 371 363 L 377 369 L 379 369 L 380 370 L 432 370 L 433 369 L 435 369 L 438 366 L 438 365 L 439 364 L 439 357 L 440 356 L 441 356 L 442 357 L 444 357 L 445 358 L 447 358 L 448 359 L 496 359 L 497 358 L 498 358 L 500 360 L 500 373 L 499 374 L 485 374 L 484 375 L 483 375 L 482 376 L 477 376 L 476 375 L 472 375 L 471 374 L 422 374 L 421 375 L 418 375 L 417 376 L 414 376 L 413 377 L 411 377 L 410 378 L 408 378 L 407 379 L 406 379 L 404 381 L 403 381 L 399 385 L 371 385 L 370 384 L 370 374 L 369 373 L 369 372 L 368 371 L 367 371 L 366 370 L 365 370 L 364 369 L 301 369 L 300 370 L 299 370 L 296 373 L 296 376 L 295 377 L 295 378 L 294 379 L 293 378 L 292 378 L 291 377 L 290 377 L 289 376 L 286 376 L 285 375 L 281 375 L 280 374 L 233 374 L 232 375 L 228 375 L 227 376 L 225 376 L 224 377 L 222 377 L 221 378 L 220 378 L 219 379 L 218 379 L 217 380 L 216 380 L 214 382 L 213 382 L 209 386 L 208 386 L 205 389 L 205 390 L 203 392 L 203 393 L 201 395 L 201 396 L 200 397 L 200 398 L 199 399 L 199 401 L 198 402 L 198 404 L 197 405 L 197 408 L 196 409 L 196 417 L 195 418 L 195 473 L 196 474 L 196 482 L 197 483 L 197 487 L 198 488 L 198 492 L 197 493 L 197 495 L 196 496 L 196 499 L 195 500 L 195 537 L 196 538 L 196 545 L 197 546 L 197 549 L 198 550 L 198 552 L 199 553 L 199 555 L 200 556 L 200 557 L 201 558 L 201 559 L 203 561 L 203 562 L 208 567 L 208 568 L 210 570 L 211 570 L 214 573 L 215 573 L 217 575 L 218 575 L 219 576 L 220 576 L 221 577 L 222 577 L 223 578 L 225 578 L 226 579 L 229 579 L 230 580 L 282 580 L 283 579 L 286 579 L 287 578 L 290 578 L 291 577 L 292 577 L 293 576 L 294 576 L 295 575 L 296 575 L 297 574 L 298 574 L 300 572 L 301 572 L 305 568 L 306 568 L 308 570 L 309 570 L 312 573 L 313 573 L 315 575 L 316 575 L 317 576 L 318 576 L 319 577 L 321 577 L 322 578 L 324 578 L 325 579 L 329 579 L 330 580 L 379 580 L 380 579 L 383 579 L 384 578 L 386 578 L 387 577 L 389 577 L 390 576 L 391 576 L 392 575 L 393 575 L 394 574 L 395 574 L 397 572 L 398 572 L 399 571 L 400 571 L 401 572 L 402 572 L 404 574 L 405 574 L 406 575 L 407 575 L 408 576 L 409 576 L 410 577 L 411 577 L 412 578 L 414 578 L 415 579 L 418 579 L 419 580 L 425 580 L 426 581 L 463 581 L 464 580 L 473 580 L 474 579 L 477 579 L 478 578 L 482 578 L 484 580 L 487 580 L 488 581 L 526 581 L 527 582 L 527 585 L 528 586 L 528 587 L 529 588 L 529 590 L 531 592 L 531 593 L 532 594 L 532 595 L 541 604 L 542 604 L 543 605 L 544 605 L 545 606 L 546 606 L 547 607 L 548 607 L 549 608 L 551 608 L 552 609 L 555 609 L 556 610 L 641 610 L 642 609 L 643 609 L 644 608 L 645 608 L 645 607 L 647 605 L 647 580 L 648 579 L 652 579 L 653 580 L 703 580 L 704 579 L 707 579 L 708 578 L 711 578 L 712 577 L 713 577 L 714 576 L 715 576 L 716 575 L 717 575 L 719 573 L 720 573 L 721 572 L 722 572 L 723 573 L 724 573 L 726 575 L 727 575 L 728 576 L 729 576 L 730 577 L 731 577 L 732 578 L 734 578 L 735 579 L 738 579 L 739 580 L 743 580 L 744 581 L 787 581 L 788 580 L 793 580 L 794 579 L 797 579 L 798 578 L 800 578 L 801 577 L 803 577 L 804 576 L 805 576 L 807 574 L 808 574 L 809 573 L 810 573 L 818 565 L 818 564 L 821 561 L 821 560 L 822 559 L 822 558 L 824 556 L 824 554 L 825 553 L 825 551 L 826 550 L 826 548 L 827 547 L 827 542 L 828 541 L 828 480 L 827 479 L 827 472 L 826 471 L 826 468 L 825 467 L 825 465 L 824 464 L 824 463 L 825 462 L 825 461 L 826 460 L 826 459 L 827 458 L 827 456 L 828 455 L 828 416 L 827 415 L 827 409 L 826 408 L 826 405 L 825 404 L 825 402 L 824 401 L 824 400 L 823 399 L 823 397 L 822 396 L 822 395 L 820 393 L 820 392 L 818 390 L 818 389 L 812 383 L 811 383 L 809 381 L 808 381 L 806 379 L 805 379 L 804 378 L 802 378 L 801 377 L 799 377 L 798 376 L 796 376 L 795 375 L 791 375 L 790 374 L 743 374 L 742 375 L 738 375 L 737 376 L 735 376 L 734 377 L 732 377 L 731 378 L 730 378 L 729 379 L 728 379 L 727 380 L 726 380 L 725 381 L 724 381 L 722 383 L 720 381 L 719 381 L 717 379 L 716 379 L 715 378 L 713 378 L 712 377 L 711 377 L 710 376 L 708 376 L 707 375 L 702 375 L 701 374 L 654 374 L 653 375 L 649 375 L 648 376 L 643 376 L 642 375 L 641 375 L 640 374 L 620 374 L 619 373 L 619 371 L 620 370 L 620 157 L 619 156 L 619 155 L 618 154 L 618 153 L 617 152 L 616 152 L 615 151 L 614 151 L 613 150 L 506 150 L 505 151 L 504 151 L 501 154 L 501 155 L 500 156 L 500 160 L 499 161 L 490 161 L 489 160 L 489 154 L 488 153 L 488 150 L 487 149 L 487 148 L 485 146 L 484 146 L 483 145 L 419 145 L 418 146 L 417 146 L 415 148 L 415 149 L 414 150 L 414 152 L 413 153 L 412 153 L 411 152 L 409 152 L 408 151 L 403 151 L 402 150 L 324 150 L 323 151 L 322 151 L 321 152 L 315 152 L 314 151 L 310 151 L 309 150 L 263 150 L 262 151 L 258 151 L 257 152 L 254 152 L 253 153 L 252 153 L 251 154 L 249 154 L 248 155 L 247 155 L 246 156 L 245 156 L 243 158 L 242 158 L 241 159 L 239 159 L 237 157 L 236 157 L 235 156 L 234 156 L 233 155 L 232 155 L 231 154 L 230 154 L 229 153 L 227 153 L 226 152 L 224 152 L 223 151 L 219 151 L 218 150 L 211 150 L 210 149 L 210 118 L 209 117 L 209 115 L 208 114 L 208 113 L 206 111 L 205 111 L 204 110 Z" fill="#f2f2f2" stroke="none" /><path d="M 895 742 L 894 743 L 878 743 L 877 744 L 864 744 L 863 745 L 843 745 L 842 746 L 827 746 L 826 747 L 809 747 L 808 748 L 793 748 L 792 749 L 773 749 L 772 750 L 755 750 L 754 751 L 740 751 L 739 752 L 724 752 L 723 753 L 704 753 L 703 754 L 689 754 L 688 755 L 672 755 L 671 756 L 651 756 L 650 757 L 635 757 L 634 758 L 617 758 L 616 759 L 598 759 L 597 760 L 584 760 L 583 761 L 564 761 L 563 762 L 549 762 L 548 763 L 529 763 L 528 764 L 511 764 L 510 765 L 492 765 L 491 766 L 478 766 L 477 767 L 460 767 L 459 768 L 442 768 L 441 769 L 426 769 L 425 770 L 410 770 L 409 771 L 388 771 L 387 772 L 373 772 L 372 773 L 352 773 L 351 774 L 336 774 L 335 775 L 318 775 L 317 776 L 301 776 L 300 777 L 283 777 L 282 778 L 267 778 L 266 779 L 249 779 L 248 780 L 232 780 L 231 781 L 211 781 L 210 782 L 195 782 L 194 783 L 178 783 L 177 784 L 164 784 L 163 785 L 144 785 L 143 786 L 131 786 L 130 787 L 114 787 L 114 798 L 115 799 L 125 799 L 126 798 L 142 798 L 143 797 L 158 797 L 159 796 L 175 796 L 176 795 L 192 795 L 193 794 L 212 794 L 213 793 L 229 793 L 230 792 L 247 792 L 248 791 L 263 791 L 264 790 L 282 790 L 283 789 L 299 789 L 300 788 L 318 788 L 319 787 L 333 787 L 334 786 L 353 786 L 354 785 L 368 785 L 369 784 L 387 784 L 388 783 L 405 783 L 406 782 L 422 782 L 423 781 L 437 781 L 438 780 L 456 780 L 457 779 L 474 779 L 475 778 L 493 778 L 494 777 L 512 777 L 513 776 L 530 776 L 531 775 L 546 775 L 547 774 L 564 774 L 565 773 L 580 773 L 581 772 L 599 772 L 600 771 L 615 771 L 616 770 L 634 770 L 635 769 L 649 769 L 650 768 L 668 768 L 669 767 L 684 767 L 685 766 L 703 766 L 704 765 L 719 765 L 720 764 L 735 764 L 736 763 L 755 763 L 756 762 L 774 762 L 775 761 L 793 761 L 794 760 L 810 760 L 811 759 L 826 759 L 827 758 L 846 758 L 847 757 L 861 757 L 862 756 L 880 756 L 881 755 L 895 755 L 896 754 L 909 754 L 910 753 L 910 744 L 909 743 L 909 742 Z" fill="#b22222" stroke="none" /><path d="M 905 721 L 904 722 L 888 722 L 887 723 L 869 723 L 868 724 L 856 724 L 855 725 L 836 725 L 835 726 L 816 726 L 815 727 L 802 727 L 801 728 L 786 728 L 785 729 L 768 729 L 767 730 L 750 730 L 749 731 L 729 731 L 728 732 L 716 732 L 715 733 L 695 733 L 694 734 L 677 734 L 676 735 L 663 735 L 662 736 L 648 736 L 647 737 L 626 737 L 625 738 L 613 738 L 612 739 L 592 739 L 591 740 L 578 740 L 577 741 L 556 741 L 555 742 L 540 742 L 539 743 L 520 743 L 519 744 L 507 744 L 506 745 L 488 745 L 487 746 L 469 746 L 468 747 L 452 747 L 451 748 L 432 748 L 431 749 L 413 749 L 412 750 L 398 750 L 397 751 L 380 751 L 379 752 L 363 752 L 362 753 L 348 753 L 347 754 L 328 754 L 327 755 L 310 755 L 309 756 L 294 756 L 293 757 L 273 757 L 272 758 L 257 758 L 256 759 L 240 759 L 239 760 L 224 760 L 223 761 L 204 761 L 203 762 L 188 762 L 187 763 L 168 763 L 167 764 L 152 764 L 151 765 L 131 765 L 130 766 L 117 766 L 116 767 L 114 767 L 114 778 L 132 778 L 133 777 L 151 777 L 152 776 L 167 776 L 168 775 L 184 775 L 185 774 L 206 774 L 207 773 L 222 773 L 223 772 L 239 772 L 240 771 L 253 771 L 254 770 L 274 770 L 275 769 L 290 769 L 291 768 L 307 768 L 308 767 L 328 767 L 329 766 L 343 766 L 344 765 L 356 765 L 357 764 L 378 764 L 379 763 L 394 763 L 395 762 L 413 762 L 414 761 L 433 761 L 434 760 L 450 760 L 451 759 L 466 759 L 467 758 L 487 758 L 488 757 L 503 757 L 504 756 L 520 756 L 521 755 L 536 755 L 537 754 L 557 754 L 558 753 L 572 753 L 573 752 L 591 752 L 592 751 L 607 751 L 608 750 L 624 750 L 625 749 L 642 749 L 643 748 L 659 748 L 660 747 L 675 747 L 676 746 L 697 746 L 698 745 L 711 745 L 712 744 L 729 744 L 730 743 L 747 743 L 748 742 L 767 742 L 768 741 L 783 741 L 784 740 L 799 740 L 800 739 L 815 739 L 816 738 L 835 738 L 836 737 L 851 737 L 852 736 L 868 736 L 869 735 L 887 735 L 888 734 L 903 734 L 904 733 L 909 733 L 910 732 L 910 725 L 909 724 L 909 722 L 908 721 Z" fill="#b22222" stroke="none" /><path d="M 160 653 L 159 654 L 144 654 L 143 655 L 130 655 L 129 656 L 116 656 L 115 657 L 114 657 L 114 661 L 115 661 L 116 662 L 119 662 L 123 666 L 123 667 L 124 668 L 124 743 L 123 744 L 123 746 L 121 748 L 120 748 L 119 749 L 118 749 L 117 750 L 115 750 L 114 751 L 114 756 L 125 756 L 126 755 L 140 755 L 141 754 L 158 754 L 158 748 L 153 748 L 148 743 L 148 741 L 147 740 L 147 709 L 148 708 L 157 708 L 158 709 L 160 709 L 166 715 L 166 716 L 167 717 L 167 718 L 168 719 L 168 721 L 169 722 L 169 724 L 170 725 L 170 729 L 171 730 L 171 734 L 172 735 L 172 739 L 173 740 L 173 742 L 174 743 L 174 744 L 175 745 L 175 747 L 179 751 L 180 751 L 181 752 L 199 752 L 200 751 L 208 751 L 209 750 L 209 746 L 208 745 L 204 745 L 203 744 L 202 744 L 198 740 L 198 739 L 197 738 L 197 737 L 196 736 L 196 731 L 195 730 L 195 726 L 194 725 L 194 723 L 193 722 L 193 719 L 192 718 L 192 716 L 190 714 L 190 713 L 186 709 L 185 709 L 184 708 L 183 708 L 182 707 L 181 707 L 180 706 L 179 706 L 178 705 L 177 705 L 176 704 L 176 703 L 177 702 L 179 702 L 180 701 L 181 701 L 182 700 L 183 700 L 184 699 L 186 699 L 190 695 L 191 695 L 193 693 L 193 692 L 194 691 L 194 690 L 195 689 L 195 688 L 196 687 L 196 686 L 197 685 L 197 681 L 198 680 L 198 675 L 197 674 L 197 669 L 196 668 L 196 666 L 194 664 L 194 663 L 191 660 L 190 660 L 188 658 L 187 658 L 186 657 L 185 657 L 184 656 L 183 656 L 182 655 L 179 655 L 178 654 L 175 654 L 174 653 Z" fill="#b22222" stroke="none" /><path d="M 285 646 L 284 647 L 264 647 L 263 648 L 251 648 L 250 649 L 230 649 L 229 650 L 218 650 L 217 651 L 217 655 L 218 656 L 221 656 L 222 657 L 223 657 L 226 660 L 226 661 L 227 662 L 227 664 L 228 665 L 228 734 L 227 735 L 227 738 L 226 739 L 226 740 L 223 743 L 222 743 L 221 744 L 219 744 L 218 745 L 217 745 L 217 749 L 218 750 L 228 750 L 229 749 L 244 749 L 245 748 L 269 748 L 270 747 L 282 747 L 283 746 L 297 746 L 298 745 L 298 742 L 299 741 L 299 723 L 300 722 L 300 714 L 295 714 L 294 715 L 294 717 L 293 718 L 293 719 L 292 720 L 292 721 L 291 722 L 291 723 L 290 724 L 290 725 L 288 727 L 288 728 L 287 729 L 287 730 L 281 736 L 280 736 L 278 738 L 277 738 L 276 739 L 273 739 L 272 740 L 260 740 L 259 741 L 254 741 L 253 740 L 252 740 L 251 739 L 251 738 L 250 737 L 250 702 L 253 699 L 258 699 L 259 700 L 263 700 L 264 701 L 265 701 L 270 706 L 270 708 L 271 709 L 271 712 L 272 713 L 272 714 L 277 714 L 277 676 L 272 676 L 272 680 L 271 681 L 271 682 L 270 683 L 270 685 L 268 687 L 268 688 L 266 690 L 265 690 L 264 691 L 262 691 L 261 692 L 256 692 L 255 693 L 252 693 L 251 692 L 251 691 L 250 690 L 250 670 L 251 669 L 251 667 L 250 666 L 250 659 L 251 658 L 251 657 L 253 655 L 274 655 L 275 656 L 277 656 L 278 657 L 279 657 L 285 663 L 285 664 L 286 665 L 286 666 L 287 667 L 287 668 L 288 669 L 288 670 L 289 671 L 289 673 L 290 674 L 290 675 L 296 675 L 296 658 L 295 657 L 295 646 Z" fill="#b22222" stroke="none" /><path d="M 392 640 L 391 641 L 375 641 L 374 642 L 373 642 L 373 646 L 375 646 L 376 647 L 378 647 L 379 648 L 380 648 L 382 650 L 382 651 L 383 652 L 383 653 L 384 654 L 384 658 L 383 659 L 383 662 L 382 663 L 382 666 L 381 667 L 381 669 L 380 670 L 380 672 L 379 673 L 379 675 L 378 676 L 378 677 L 377 678 L 377 680 L 376 681 L 376 683 L 375 684 L 375 686 L 374 687 L 374 689 L 373 690 L 373 692 L 372 693 L 372 694 L 371 695 L 371 697 L 370 698 L 370 700 L 369 701 L 369 703 L 368 704 L 368 706 L 367 707 L 367 709 L 366 710 L 366 712 L 365 713 L 365 714 L 364 715 L 363 715 L 362 714 L 362 713 L 361 712 L 361 710 L 360 709 L 360 707 L 359 706 L 359 705 L 358 704 L 358 702 L 357 701 L 357 699 L 356 698 L 356 696 L 355 695 L 355 693 L 354 692 L 354 691 L 353 690 L 353 687 L 352 686 L 352 685 L 351 684 L 351 682 L 350 681 L 350 680 L 349 679 L 349 677 L 348 676 L 348 675 L 347 674 L 347 672 L 346 671 L 346 668 L 345 667 L 345 666 L 344 665 L 344 663 L 343 662 L 343 660 L 342 659 L 342 655 L 343 654 L 343 653 L 347 649 L 348 649 L 349 648 L 350 648 L 351 647 L 352 647 L 352 643 L 336 643 L 335 644 L 322 644 L 321 645 L 308 645 L 306 647 L 306 650 L 307 651 L 308 651 L 309 652 L 311 652 L 315 656 L 315 657 L 316 658 L 316 659 L 317 660 L 317 661 L 318 662 L 318 663 L 319 664 L 319 666 L 320 667 L 320 668 L 321 669 L 321 670 L 322 671 L 322 673 L 323 674 L 323 675 L 324 676 L 324 678 L 325 679 L 325 681 L 326 682 L 326 683 L 327 684 L 327 686 L 328 687 L 328 689 L 329 690 L 329 691 L 330 692 L 330 694 L 331 695 L 331 696 L 332 697 L 332 699 L 333 700 L 333 702 L 334 703 L 334 704 L 335 705 L 335 707 L 336 708 L 336 709 L 337 710 L 337 712 L 338 713 L 338 714 L 339 715 L 339 717 L 340 718 L 340 720 L 341 721 L 341 722 L 342 723 L 342 725 L 343 726 L 343 728 L 344 729 L 344 730 L 345 731 L 345 733 L 346 734 L 346 736 L 347 737 L 347 738 L 348 739 L 348 741 L 349 742 L 349 743 L 363 743 L 363 742 L 364 741 L 364 739 L 365 738 L 365 737 L 366 736 L 366 734 L 367 733 L 367 731 L 368 730 L 368 728 L 369 727 L 369 725 L 370 724 L 370 722 L 371 721 L 371 720 L 372 719 L 372 717 L 373 716 L 373 714 L 374 713 L 374 711 L 375 710 L 375 709 L 376 708 L 376 706 L 377 705 L 377 703 L 378 702 L 378 700 L 379 699 L 379 697 L 380 696 L 380 694 L 381 693 L 381 691 L 382 690 L 382 689 L 383 688 L 383 686 L 384 685 L 384 683 L 385 682 L 385 680 L 386 679 L 386 677 L 387 676 L 387 675 L 388 674 L 388 672 L 389 671 L 389 669 L 390 668 L 390 666 L 391 665 L 391 663 L 392 662 L 392 661 L 393 660 L 393 659 L 394 658 L 394 657 L 395 656 L 395 655 L 396 654 L 396 653 L 399 650 L 399 649 L 400 648 L 401 648 L 403 646 L 404 646 L 405 645 L 406 645 L 407 644 L 407 640 Z" fill="#b22222" stroke="none" /><path d="M 440 637 L 440 638 L 439 639 L 439 641 L 438 642 L 438 644 L 437 645 L 437 646 L 436 647 L 436 649 L 435 650 L 435 652 L 434 653 L 434 655 L 433 656 L 433 658 L 432 659 L 432 660 L 431 661 L 431 663 L 430 664 L 430 666 L 429 667 L 429 668 L 428 669 L 428 671 L 427 672 L 427 674 L 426 675 L 426 676 L 425 677 L 425 679 L 424 680 L 424 681 L 423 682 L 423 684 L 422 685 L 422 688 L 421 689 L 421 690 L 420 691 L 420 693 L 419 694 L 419 696 L 418 697 L 418 699 L 417 700 L 417 702 L 416 703 L 416 704 L 415 705 L 415 707 L 414 708 L 414 710 L 413 711 L 413 713 L 412 714 L 412 715 L 411 716 L 411 718 L 410 719 L 410 720 L 409 721 L 409 722 L 408 723 L 408 724 L 407 725 L 407 726 L 406 727 L 406 728 L 401 733 L 400 733 L 399 734 L 398 734 L 396 736 L 396 739 L 397 740 L 409 740 L 410 739 L 420 739 L 421 738 L 429 738 L 429 733 L 425 733 L 424 732 L 423 732 L 420 729 L 420 728 L 419 727 L 419 721 L 420 720 L 420 717 L 421 716 L 421 714 L 422 713 L 422 711 L 423 710 L 423 708 L 424 707 L 425 707 L 426 706 L 446 706 L 447 705 L 454 705 L 456 707 L 456 709 L 457 710 L 457 712 L 458 713 L 458 714 L 459 715 L 459 717 L 460 718 L 460 721 L 461 722 L 461 725 L 460 726 L 460 727 L 459 728 L 459 729 L 458 730 L 457 730 L 456 731 L 454 731 L 453 732 L 452 732 L 452 737 L 460 737 L 461 736 L 478 736 L 479 735 L 493 735 L 494 734 L 497 734 L 497 730 L 496 729 L 494 729 L 491 726 L 490 726 L 488 724 L 488 723 L 486 721 L 486 720 L 485 719 L 485 717 L 484 716 L 484 714 L 483 713 L 483 712 L 482 711 L 482 710 L 481 709 L 481 707 L 480 706 L 480 704 L 478 702 L 478 700 L 477 699 L 477 698 L 476 697 L 476 695 L 475 694 L 475 693 L 474 692 L 474 691 L 473 690 L 473 688 L 472 687 L 472 685 L 471 684 L 471 683 L 470 682 L 470 680 L 469 679 L 469 677 L 468 676 L 468 675 L 467 674 L 467 672 L 466 671 L 466 669 L 465 668 L 465 667 L 464 666 L 464 665 L 463 664 L 463 663 L 462 662 L 462 660 L 461 659 L 461 658 L 460 657 L 460 655 L 459 654 L 459 652 L 458 651 L 458 650 L 457 649 L 457 647 L 456 646 L 456 645 L 455 644 L 455 642 L 454 641 L 454 640 L 453 639 L 453 637 Z" fill="#b22222" stroke="none" /><path d="M 605 628 L 604 629 L 583 629 L 582 630 L 582 631 L 581 632 L 581 634 L 580 635 L 580 638 L 579 639 L 579 641 L 578 642 L 578 644 L 577 645 L 577 646 L 576 647 L 576 649 L 575 650 L 575 652 L 574 653 L 574 655 L 573 656 L 573 658 L 572 659 L 572 661 L 571 662 L 571 664 L 570 665 L 570 666 L 569 667 L 569 670 L 568 671 L 568 673 L 567 674 L 567 676 L 566 677 L 566 679 L 565 680 L 565 681 L 564 682 L 564 684 L 563 685 L 563 686 L 562 687 L 561 687 L 560 686 L 560 685 L 559 684 L 559 682 L 558 681 L 558 680 L 557 679 L 557 677 L 556 676 L 556 675 L 555 674 L 555 672 L 554 671 L 554 669 L 553 668 L 553 666 L 552 665 L 552 663 L 551 662 L 551 661 L 550 660 L 550 658 L 549 657 L 549 656 L 548 655 L 548 653 L 547 652 L 547 650 L 546 649 L 546 647 L 545 646 L 545 644 L 544 643 L 544 641 L 543 640 L 543 639 L 542 638 L 542 636 L 541 635 L 541 634 L 540 633 L 540 632 L 534 632 L 533 633 L 509 633 L 508 634 L 505 634 L 504 635 L 504 638 L 505 639 L 507 639 L 508 640 L 510 640 L 511 641 L 512 641 L 514 643 L 514 644 L 515 645 L 515 648 L 516 649 L 516 652 L 515 653 L 515 719 L 514 720 L 514 721 L 513 722 L 513 723 L 509 727 L 508 727 L 507 728 L 506 728 L 505 729 L 505 734 L 512 734 L 513 733 L 533 733 L 534 732 L 537 732 L 537 727 L 535 727 L 534 726 L 532 726 L 530 724 L 529 724 L 527 722 L 527 721 L 526 720 L 526 719 L 525 718 L 525 714 L 524 713 L 524 661 L 525 660 L 526 660 L 528 662 L 528 663 L 529 664 L 529 665 L 530 666 L 530 668 L 531 669 L 531 671 L 532 672 L 532 673 L 533 674 L 533 676 L 534 677 L 534 679 L 535 680 L 535 682 L 536 683 L 536 684 L 537 685 L 537 687 L 538 688 L 538 689 L 539 690 L 539 692 L 540 693 L 540 695 L 541 696 L 541 698 L 542 699 L 542 701 L 543 702 L 543 703 L 544 704 L 544 706 L 545 707 L 545 708 L 546 709 L 546 711 L 547 712 L 547 714 L 548 715 L 548 717 L 549 718 L 549 720 L 550 721 L 550 722 L 551 723 L 557 723 L 559 721 L 559 719 L 560 718 L 560 716 L 561 715 L 561 713 L 562 712 L 562 710 L 563 709 L 563 707 L 564 706 L 564 704 L 565 703 L 565 701 L 566 700 L 566 699 L 567 698 L 567 696 L 568 695 L 568 693 L 569 692 L 569 690 L 570 689 L 570 687 L 571 686 L 571 684 L 572 683 L 572 681 L 573 680 L 573 678 L 574 677 L 574 675 L 575 674 L 575 673 L 576 672 L 576 669 L 577 668 L 577 666 L 578 665 L 578 663 L 579 662 L 579 660 L 580 659 L 580 658 L 581 657 L 581 656 L 582 655 L 584 657 L 584 703 L 583 704 L 583 711 L 584 712 L 583 713 L 583 718 L 582 719 L 582 720 L 579 723 L 578 723 L 577 724 L 576 724 L 575 725 L 574 725 L 574 730 L 585 730 L 586 729 L 601 729 L 602 728 L 616 728 L 617 727 L 617 723 L 616 722 L 613 722 L 612 721 L 611 721 L 608 718 L 608 717 L 607 716 L 607 712 L 606 711 L 606 645 L 607 644 L 607 640 L 608 639 L 608 638 L 612 634 L 614 634 L 615 633 L 617 633 L 617 628 Z" fill="#b22222" stroke="none" /><path d="M 674 624 L 673 625 L 656 625 L 655 626 L 643 626 L 642 627 L 629 627 L 629 632 L 630 632 L 631 633 L 634 633 L 638 637 L 638 638 L 639 639 L 639 714 L 638 715 L 638 716 L 637 717 L 637 718 L 636 719 L 635 719 L 633 721 L 631 721 L 630 722 L 629 722 L 629 727 L 636 727 L 637 726 L 653 726 L 654 725 L 668 725 L 669 724 L 675 724 L 675 719 L 671 719 L 670 718 L 668 718 L 667 717 L 666 717 L 664 715 L 664 714 L 663 713 L 663 709 L 662 708 L 662 683 L 664 681 L 680 681 L 681 680 L 685 680 L 686 679 L 689 679 L 690 678 L 692 678 L 693 677 L 694 677 L 695 676 L 696 676 L 697 675 L 698 675 L 700 673 L 701 673 L 708 666 L 708 665 L 709 664 L 709 663 L 710 662 L 710 660 L 711 659 L 711 656 L 712 655 L 712 645 L 711 644 L 711 641 L 710 640 L 710 638 L 709 637 L 709 636 L 706 633 L 706 632 L 705 631 L 704 631 L 702 629 L 701 629 L 700 628 L 699 628 L 698 627 L 697 627 L 696 626 L 693 626 L 692 625 L 684 625 L 683 624 Z" fill="#b22222" stroke="none" /><path d="M 777 618 L 776 619 L 761 619 L 760 620 L 744 620 L 743 621 L 726 621 L 725 622 L 722 622 L 722 627 L 724 627 L 725 628 L 727 628 L 728 629 L 729 629 L 731 631 L 731 632 L 732 633 L 732 709 L 731 710 L 731 711 L 727 715 L 725 715 L 724 716 L 723 716 L 722 717 L 722 721 L 723 721 L 724 722 L 727 722 L 728 721 L 739 721 L 740 720 L 757 720 L 758 719 L 778 719 L 779 718 L 795 718 L 796 717 L 803 717 L 803 711 L 804 710 L 804 691 L 805 690 L 805 685 L 800 685 L 799 686 L 799 687 L 798 688 L 798 689 L 797 690 L 797 692 L 796 693 L 796 694 L 795 695 L 795 696 L 793 698 L 793 699 L 791 701 L 791 702 L 785 708 L 784 708 L 783 709 L 782 709 L 781 710 L 779 710 L 778 711 L 770 711 L 769 712 L 760 712 L 759 711 L 757 711 L 755 709 L 755 673 L 757 671 L 767 671 L 768 672 L 769 672 L 770 673 L 771 673 L 774 676 L 774 677 L 775 678 L 775 680 L 776 681 L 776 684 L 777 685 L 777 686 L 779 686 L 780 685 L 782 685 L 782 648 L 777 648 L 777 649 L 776 650 L 776 653 L 775 654 L 775 656 L 769 662 L 767 662 L 766 663 L 757 663 L 755 661 L 755 629 L 757 627 L 763 627 L 764 626 L 777 626 L 778 627 L 781 627 L 782 628 L 783 628 L 790 635 L 790 636 L 792 638 L 792 639 L 793 640 L 793 641 L 794 642 L 794 644 L 795 645 L 795 646 L 796 647 L 798 647 L 799 646 L 801 646 L 801 627 L 800 626 L 800 618 Z" fill="#b22222" stroke="none" /><path d="M 866 613 L 865 614 L 851 614 L 850 615 L 832 615 L 831 616 L 818 616 L 817 617 L 817 620 L 818 621 L 818 622 L 821 622 L 822 623 L 823 623 L 826 626 L 826 627 L 827 628 L 827 631 L 828 632 L 828 700 L 827 701 L 827 705 L 822 710 L 820 710 L 819 711 L 817 711 L 817 716 L 828 716 L 829 715 L 843 715 L 844 714 L 867 714 L 868 713 L 873 713 L 874 712 L 876 712 L 877 711 L 879 711 L 880 710 L 882 710 L 883 709 L 884 709 L 885 708 L 886 708 L 887 707 L 888 707 L 890 705 L 891 705 L 894 702 L 895 702 L 900 697 L 900 696 L 903 693 L 903 692 L 905 690 L 905 689 L 906 688 L 906 687 L 907 686 L 907 684 L 908 683 L 908 681 L 909 680 L 909 677 L 910 676 L 910 672 L 911 671 L 911 650 L 910 649 L 910 645 L 909 644 L 909 642 L 908 641 L 908 638 L 907 637 L 907 636 L 906 635 L 906 634 L 904 632 L 904 631 L 902 629 L 902 628 L 896 622 L 895 622 L 893 620 L 892 620 L 891 619 L 890 619 L 889 618 L 888 618 L 887 617 L 885 617 L 884 616 L 882 616 L 881 615 L 877 615 L 876 614 L 870 614 L 869 613 Z" fill="#b22222" stroke="none" /></svg>